<svg data-v-0dd9719b="" version="1.0" xmlns="http://www.w3.org/2000/svg" xmlns:xlink="http://www.w3.org/1999/xlink" width="100%" height="100%" viewBox="0 0 340.000000 250.000000" preserveAspectRatio="xMidYMid meet" color-interpolation-filters="sRGB" style="margin: auto;">   <g data-v-0dd9719b="" fill="#333" class="icon-text-wrapper icon-svg-group iconsvg" transform="translate(87.48500061035156,74.92395782470703)"><g class="iconsvg-imagesvg" transform="translate(52.51499938964844,0)"><g><rect fill="#333" fill-opacity="0" stroke-width="2" x="0" y="0" width="60" height="60.07208650380456" class="image-rect"></rect> <svg x="0" y="0" width="60" height="60.07208650380456" filtersec="colorsb3492802941" class="image-svg-svg primary" style="overflow: visible;"><svg xmlns="http://www.w3.org/2000/svg" viewBox="0 -0.00001430726933904225 99.8800048828125 100.00004577636719"><g fill-rule="evenodd"><path d="M10.85 81.18L46.64 87V76.88l-40.3-2.39a49.59 49.59 0 0 0 4.51 6.69zM51.52 100v-8.74l-37.47-6.45A49.85 49.85 0 0 0 49.94 100h1.58zM1.57 62.7l63.7 1.11v10L3.15 67.68a48.89 48.89 0 0 1-1.58-5zM.49 57.48l56.82 3.27V50.54L0 52.53c.08 1.67.25 3.32.49 4.95zM0 47.19L44.45 49V38.39l-43.94 4C.27 44 .11 45.58 0 47.19zM1.62 37.09l32.83-1.35v-10l-30.66 5a49 49 0 0 0-2.17 6.35zM6.32 25.55l35.4-3.08V11.64l-30 6.12a49.44 49.44 0 0 0-5.41 7.79zM49.63 0v9.2L15.26 14A49.84 49.84 0 0 1 49.63 0z" fill="#2491eb"></path><path d="M90 80l-43.36 7V76.88l47.12-2.8A50.6 50.6 0 0 1 90 80zM51.52 100v-8.74l34.33-6.48A49.82 49.82 0 0 1 51.52 100zM96.25 68.86l-31 5v-10l33-1.08a49 49 0 0 1-2 6.13zM99.42 57.18l-42.11 3.57V50.54l42.57 1.71c-.07 1.66-.23 3.31-.46 4.93zM99.88 47.67L44.45 49V38.39l54.81 3.38a49.74 49.74 0 0 1 .62 5.9zM98.19 36.88l-63.74-1.14v-10l62 5.95a48.69 48.69 0 0 1 1.72 5.2zM93.78 26l-52.06-3.53V11.64l47.39 7.29a50.45 50.45 0 0 1 4.67 7zM49.63 0v9.2l35.18 5A49.82 49.82 0 0 0 49.94 0z" fill="#145593"></path></g></svg></svg> <!----></g></g> <g transform="translate(0,67.07208633422852)"><g data-gra="path-name" fill-rule="" class="tp-name iconsvg-namesvg"><g transform="scale(1)"><g><path d="M15.2-31.84Q17.78-31.84 19.89-29.74L19.89-29.74Q20.75-28.68 21.32-27.25L21.32-27.25Q21.7-25.91 21.7-25.24L21.7-25.24 21.7-24.76Q21.32-22.47 19.41-22.47L19.41-22.47Q17.5-22.47 16.64-25.53L16.64-25.53Q16.16-26.48 14.92-26.48L14.92-26.48Q13.1-26.48 11.19-23.14L11.19-23.14Q10.61-21.8 10.61-21.03L10.61-21.03Q10.61-18.84 13.1-17.98L13.1-17.98Q14.44-17.31 15.58-16.92L15.58-16.92Q16.25-16.64 18.45-15.87L18.45-15.87Q19.22-15.3 20.65-14.06L20.65-14.06Q21.9-12.05 22.18-10.42L22.18-10.42Q22.18-10.42 22.18-10.42L22.18-10.42 22.18-8.89Q21.7-7.55 20.46-5.64L20.46-5.64Q19.6-4.4 17.59-2.87L17.59-2.87Q17.21-2.58 14.06-1.63L14.06-1.63Q10.8-0.96 9.66-0.96L9.66-0.96 9.47-0.96Q8.99-0.96 7.74-0.96L7.74-0.96Q7.74-1.05 6.6-1.24L6.6-1.24 5.45-1.91Q3.73-2.87 3.73-4.69L3.73-4.69Q3.82-6.12 4.3-6.12L4.3-6.12 4.59-6.12Q5.35-5.83 6.79-5.55L6.79-5.55 8.22-5.55Q8.61-5.64 8.7-5.64L8.7-5.64Q12.24-5.64 14.44-7.08L14.44-7.08Q15.11-7.46 15.78-8.32L15.78-8.32Q16.06-8.61 16.16-8.99L16.16-8.99Q16.16-9.94 14.44-10.9L14.44-10.9Q14.06-10.9 10.04-12.91L10.04-12.91Q4.97-15.78 4.97-20.37L4.97-20.37 4.97-20.46Q4.97-24.67 8.32-28.59L8.32-28.59Q11.19-31.84 15.2-31.84L15.2-31.84ZM34.33-30.21L34.52-30.21Q36.33-30.21 36.72-27.35L36.72-27.35 36.24-19.98Q41.4-19.98 42.74-17.69L42.74-17.69Q43.03-17.11 43.03-16.73L43.03-16.73Q43.03-14.06 38.15-13.67L38.15-13.67Q35.76-13.67 35.76-13.58L35.76-13.58Q35.66-13 35.66-12.72L35.66-12.72 35.66-10.61Q35.66-9.18 35.95-5.35L35.95-5.35 36.05-5.35Q37.58-6.5 38.05-6.5L38.05-6.5Q38.72-6.5 38.72-5.74L38.72-5.74Q38.72-3.54 36.33-1.05L36.33-1.05Q35.47-0.48 34.42-0.48L34.42-0.48 34.42-0.48Q31.27-0.48 30.31-5.83L30.31-5.83Q30.02-7.84 30.02-9.08L30.02-9.08 30.02-11.86Q30.02-12.62 30.12-13.96L30.12-13.96 30.02-13.96Q24.57-14.63 24.57-16.25L24.57-16.25 24.57-16.83Q24.57-18.07 27.82-19.03L27.82-19.03Q30.21-19.6 30.6-19.7L30.6-19.7Q31.27-25.82 31.93-28.11L31.93-28.11Q33.08-30.21 34.33-30.21L34.33-30.21ZM62.34-22.95Q63.97-22.95 64.63-20.94L64.63-20.94 64.63-20.46Q64.63-19.89 63.1-10.9L63.1-10.9Q63.1-9.37 63.01-8.03L63.01-8.03Q63.2-6.02 63.58-6.02L63.58-6.02Q63.87-5.35 64.83-5.35L64.83-5.35Q65.88-5.35 65.88-4.78L65.88-4.78Q65.88-4.78 65.88-4.69L65.88-4.69Q64.83-2.01 62.34-2.01L62.34-2.01Q60.71-2.01 58.71-4.3L58.71-4.3Q56.51-2.39 53.54-1.82L53.54-1.82 52.11-1.63Q47.14-1.63 44.94-6.88L44.94-6.88Q44.56-8.22 44.56-9.56L44.56-9.56Q44.56-15.39 48.67-19.22L48.67-19.22Q51.92-21.99 55.84-21.99L55.84-21.99Q58.13-21.99 59.66-20.65L59.66-20.65 59.66-20.65Q60.62-22.95 62.34-22.95L62.34-22.95ZM49.72-10.71Q49.91-7.94 51.73-7.46L51.73-7.46 51.82-7.46Q54.4-7.46 57.27-11L57.27-11Q57.27-12.91 58.61-17.88L58.61-17.88Q57.56-18.36 56.89-18.36L56.89-18.36Q51.63-18.36 50.1-13.19L50.1-13.19Q49.72-12.14 49.72-10.71L49.72-10.71ZM77.26-30.21L77.45-30.21Q79.26-30.21 79.65-27.35L79.65-27.35 79.17-19.98Q84.33-19.98 85.67-17.69L85.67-17.69Q85.96-17.11 85.96-16.73L85.96-16.73Q85.96-14.06 81.08-13.67L81.08-13.67Q78.69-13.67 78.69-13.58L78.69-13.58Q78.59-13 78.59-12.72L78.59-12.72 78.59-10.61Q78.59-9.18 78.88-5.35L78.88-5.35 78.98-5.35Q80.51-6.5 80.98-6.5L80.98-6.5Q81.65-6.5 81.65-5.74L81.65-5.74Q81.65-3.54 79.26-1.05L79.26-1.05Q78.4-0.48 77.35-0.48L77.35-0.48 77.35-0.48Q74.2-0.48 73.24-5.83L73.24-5.83Q72.95-7.84 72.95-9.08L72.95-9.08 72.95-11.86Q72.95-12.62 73.05-13.96L73.05-13.96 72.95-13.96Q67.5-14.63 67.5-16.25L67.5-16.25 67.5-16.83Q67.5-18.07 70.75-19.03L70.75-19.03Q73.14-19.6 73.53-19.7L73.53-19.7Q74.2-25.82 74.87-28.11L74.87-28.11Q76.01-30.21 77.26-30.21L77.26-30.21ZM101.25-31.36Q101.83-31.36 104.12-31.27L104.12-31.27Q104.12-31.27 104.7-31.27L104.7-31.27Q107.37-30.88 107.37-28.78L107.37-28.78 107.37-28.49Q107.37-26.68 105.27-26.01L105.27-26.01Q104.89-26.01 104.6-26.01L104.6-26.01 103.74-26.01Q99.25-26.01 95.04-27.35L95.04-27.35Q95.04-27.54 94.75-27.73L94.75-27.73 94.75-27.73Q94.75-26.58 95.04-26.58L95.04-26.58Q95.04-26.48 94.94-26.39L94.94-26.39 95.61-19.31Q96.66-19.79 99.34-19.79L99.34-19.79Q105.56-19.79 105.56-19.51L105.56-19.51Q107.47-18.55 107.47-16.83L107.47-16.83Q107.47-14.82 104.98-14.06L104.98-14.06 102.88-13.96Q96.76-14.44 95.61-14.82L95.61-14.82 95.61-14.72Q95.52-12.14 94.94-6.79L94.94-6.79 95.04-6.79Q96.47-6.98 99.82-7.27L99.82-7.27Q100.49-7.27 102.4-7.17L102.4-7.17 105.17-7.27Q107.56-7.27 109-5.16L109-5.16Q109.29-4.21 109.29-3.82L109.29-3.82Q109.29-1.72 106.61-1.43L106.61-1.43 104.89-1.43Q104.79-1.43 104.7-1.43L104.7-1.43Q104.6-1.43 104.6-1.43L104.6-1.43Q103.74-1.43 103.45-1.43L103.45-1.43 102.88-1.43 97.43-1.63 97.43-1.72 97.33-1.63Q95.71-1.63 93.89-2.49L93.89-2.49Q92.55-1.72 91.6-1.63L91.6-1.63Q89.88-1.63 89.49-4.59L89.49-4.59Q89.3-5.26 89.21-7.94L89.21-7.94Q89.4-9.85 89.49-21.13L89.49-21.13Q89.78-24.96 90.64-29.26L90.64-29.26Q91.21-30.4 92.08-30.4L92.08-30.4Q93.13-30.4 94.08-28.97L94.08-28.97 94.27-28.97Q94.66-30.98 97.62-30.98L97.62-30.98Q97.62-31.17 101.25-31.36L101.25-31.36ZM126.3-22.09L126.97-22.09Q128.7-22.09 129.46-19.89L129.46-19.89Q129.56-19.6 129.56-19.31L129.56-19.31 129.56-17.11Q129.56-10.8 125.06-2.96L125.06-2.96Q123.15-0.67 121.52-0.67L121.52-0.67 121.05-0.67Q118.37-0.67 115.98-8.41L115.98-8.41Q115.21-10.13 113.21-17.21L113.21-17.21Q112.06-17.98 112.06-19.12L112.06-19.12Q112.06-20.84 114.45-21.61L114.45-21.61 115.4-21.61Q117.32-21.61 118.75-18.84L118.75-18.84Q119.13-17.4 120.57-11.86L120.57-11.86Q121.33-9.85 121.72-8.22L121.72-8.22Q122.58-9.66 123.05-11.66L123.05-11.66Q124.11-15.49 124.11-18.07L124.11-18.07Q124.11-18.26 124.01-19.31L124.01-19.31Q124.01-21.32 126.3-22.09L126.3-22.09ZM149.54-22.95Q151.16-22.95 151.83-20.94L151.83-20.94 151.83-20.46Q151.83-19.89 150.3-10.9L150.3-10.9Q150.3-9.37 150.21-8.03L150.21-8.03Q150.4-6.02 150.78-6.02L150.78-6.02Q151.07-5.35 152.02-5.35L152.02-5.35Q153.08-5.35 153.08-4.78L153.08-4.78Q153.08-4.78 153.08-4.69L153.08-4.69Q152.02-2.01 149.54-2.01L149.54-2.01Q147.91-2.01 145.91-4.3L145.91-4.3Q143.71-2.39 140.74-1.82L140.74-1.82 139.31-1.63Q134.34-1.63 132.14-6.88L132.14-6.88Q131.75-8.22 131.75-9.56L131.75-9.56Q131.75-15.39 135.87-19.22L135.87-19.22Q139.12-21.99 143.04-21.99L143.04-21.99Q145.33-21.99 146.86-20.65L146.86-20.65 146.86-20.65Q147.82-22.95 149.54-22.95L149.54-22.95ZM136.92-10.71Q137.11-7.94 138.93-7.46L138.93-7.46 139.02-7.46Q141.6-7.46 144.47-11L144.47-11Q144.47-12.91 145.81-17.88L145.81-17.88Q144.76-18.36 144.09-18.36L144.09-18.36Q138.83-18.36 137.3-13.19L137.3-13.19Q136.92-12.14 136.92-10.71L136.92-10.71ZM162.16-33.56L162.45-33.56Q164.36-33.27 164.36-31.17L164.36-31.17Q164.36-29.64 162.64-22.18L162.64-22.18Q161.39-14.25 161.39-9.37L161.39-9.37Q161.49-5.45 162.54-5.45L162.54-5.45Q163.31-5.45 165.7-7.94L165.7-7.94Q166.27-9.27 166.94-9.27L166.94-9.27 167.51-9.27Q168.28-9.27 168.76-7.65L168.76-7.65Q168.47-5.55 167.8-4.3L167.8-4.3Q165.89-0.57 162.16-0.57L162.16-0.57Q158.53-0.57 156.61-4.11L156.61-4.11Q155.75-6.6 155.75-9.94L155.75-9.94Q156.04-16.92 156.9-22.76L156.9-22.76Q159.48-33.56 162.16-33.56L162.16-33.56Z" transform="translate(-3.7300000190734863, 33.560001373291016)"></path></g> <!----> <!----> <!----> <!----> <!----> <!----> <!----></g></g> <!----></g></g><defs v-gra="od"></defs></svg>